<?xml version="1.0" encoding="UTF-8"?>
<svg width="26px" height="45px" viewBox="0 0 26 45" version="1.1" xmlns="http://www.w3.org/2000/svg" xmlns:xlink="http://www.w3.org/1999/xlink">
    <title>F9B0B78E-9BE1-4264-9045-184902A2ED6C</title>
    <g id="Page-1" stroke="none" stroke-width="1" fill="none" fill-rule="evenodd" stroke-linecap="round" stroke-linejoin="round">
        <g id="Citrus-01" transform="translate(-683.000000, -4680.000000)" stroke="#FFFFFF">
            <g id="Group" transform="translate(684.000000, 4680.000000)">
                <g id="Group-9" transform="translate(0.000000, 1.000000)">
                    <path d="M3.02867014,0 L20.9711953,0 C22.6394472,0 24,1.35720871 24,3.0225441 L24,39.9774559 C24,41.6418507 22.6394472,43 20.9711953,43 L3.02867014,43 C1.36041816,43 0,41.6418507 0,39.9774559 L0,3.0225441 C0,1.35720871 1.36041816,0 3.02867014,0 Z" id="Stroke-3"></path>
                    <path d="M11.9999192,40.2862276 C13.2958632,40.2862276 14.3518126,39.2319049 14.3518126,37.9393316 C14.3518126,36.6456832 13.2958632,35.5913605 11.9999192,35.5913605 C10.7051866,35.5913605 9.64923726,36.6456832 9.64923726,37.9393316 C9.64923726,39.2319049 10.7051866,40.2862276 11.9999192,40.2862276 Z" id="Stroke-5"></path>
                    <line x1="8.76093413" y1="2.90130908" x2="15.229213" y2="2.90130908" id="Stroke-7"></line>
                </g>
            </g>
        </g>
    </g>
</svg>