<?xml version="1.0" encoding="UTF-8"?>
<svg width="17px" height="17px" viewBox="0 0 17 17" version="1.1" xmlns="http://www.w3.org/2000/svg" xmlns:xlink="http://www.w3.org/1999/xlink">
    <title>C860E5FF-07D3-4009-85A0-FD7716ED963F</title>
    <defs>
        <polygon id="path-1" points="0 0 17 0 17 17 0 17"></polygon>
    </defs>
    <g id="Page-1" stroke="none" stroke-width="1" fill="none" fill-rule="evenodd">
        <g id="Citrus-01" transform="translate(-1423.000000, -58.000000)">
            <g id="Group-8" transform="translate(1423.000000, 58.000000)">
                <g id="Group-3">
                    <mask id="mask-2" fill="white">
                        <use xlink:href="#path-1"></use>
                    </mask>
                    <g id="Clip-2"></g>
                    <path d="M11.7959184,0 L5.20408163,0 C2.3335102,0.00850000867 0.0085,2.33351259 0,5.20408694 L0,11.7959304 C0.0085,14.6665048 2.3335102,16.9913439 5.20408163,17.0000173 L11.7959184,17.0000173 C14.6664898,16.9913439 16.9913265,14.6665048 17,11.7959304 L17,5.20408694 C16.9913265,2.33351259 14.6664898,0.00850000867 11.7959184,0 M11.7959184,1.38775652 C13.9035714,1.38775652 15.6122449,3.09643173 15.6122449,5.20408694 L15.6122449,11.7959304 C15.6122449,13.9035856 13.9035714,15.6122608 11.7959184,15.6122608 L5.20408163,15.6122608 C3.09642857,15.6122608 1.3877551,13.9035856 1.3877551,11.7959304 L1.3877551,5.20408694 C1.3877551,3.09643173 3.09642857,1.38775652 5.20408163,1.38775652 L11.7959184,1.38775652" id="Fill-1" fill="#000000" mask="url(#mask-2)"></path>
                </g>
                <path d="M12.9999127,3 C12.447683,3 12,3.44764398 12,4 C12,4.55235602 12.447683,5 12.9999127,5 C13.552317,5 14,4.55235602 14,4 C14,3.44764398 13.552317,3 12.9999127,3" id="Fill-4" fill="#000000"></path>
                <path d="M8.4912426,4 C6.0059064,4.00490682 3.99510242,6.0234211 4,8.50875734 C4.00474026,10.9940936 6.02342975,13.0048976 8.50876595,13 C10.9912984,12.9950845 13.001051,10.9807758 13,8.49824333 C12.9989482,6.0129071 10.9835881,3.99912412 8.49825194,4 L8.4912426,4 Z M8.4912426,5.40186759 C10.2022221,5.40099184 11.5900711,6.78726378 11.5911231,8.49824333 C11.592174,10.2093981 10.205902,11.5970719 8.49474727,11.5981237 C6.78359251,11.5989995 5.39574349,10.2127275 5.39486732,8.501748 L5.39486732,8.49824333 C5.39784629,6.78936658 6.78236588,5.40484697 8.4912426,5.40186759 L8.4912426,5.40186759 Z" id="Fill-6" fill="#000000"></path>
            </g>
        </g>
    </g>
</svg>