<?xml version="1.0" encoding="UTF-8"?>
<svg width="15px" height="15px" viewBox="0 0 15 15" version="1.1" xmlns="http://www.w3.org/2000/svg" xmlns:xlink="http://www.w3.org/1999/xlink">
    <title>CCE2ADF5-72F9-4540-A346-251C73DB5119</title>
    <defs>
        <polygon id="path-1" points="0 0 15 0 15 15 0 15"></polygon>
    </defs>
    <g id="Page-1" stroke="none" stroke-width="1" fill="none" fill-rule="evenodd">
        <g id="Citrus-01" transform="translate(-1316.000000, -4812.000000)">
            <g id="Group-3" transform="translate(1316.000000, 4812.000000)">
                <mask id="mask-2" fill="white">
                    <use xlink:href="#path-1"></use>
                </mask>
                <g id="Clip-2"></g>
                <path d="M11.2977632,4.64111671 C9.59131579,4.64111671 8.82671053,5.62319319 8.40039474,6.3116379 L8.40039474,4.87899562 L5.18486842,4.87899562 C5.2275,5.82844635 5.18486842,15 5.18486842,15 L8.40039474,15 L8.40039474,9.34748493 C8.40039474,9.04476749 8.42171053,8.74370199 8.50618421,8.52647229 C8.73907895,7.92186338 9.26802632,7.29619229 10.1553947,7.29619229 C11.3198684,7.29619229 11.7844737,8.22499381 11.7844737,9.58495085 L11.7844737,15 L15,15 L15,9.1963327 C15,6.08738746 13.4139474,4.64111671 11.2977632,4.64111671 L11.2977632,4.64111671 Z M1.81894737,0 C0.718815789,0 0,0.75576113 0,1.74774924 C0,2.71908813 0.6975,3.49673742 1.77710526,3.49673742 L1.79763158,3.49673742 C2.91868421,3.49673742 3.61697368,2.71908813 3.61697368,1.74774924 C3.59605263,0.75576113 2.91868421,0 1.81894737,0 L1.81894737,0 Z M0.190263158,15 L3.405,15 L3.405,4.87899562 L0.190263158,4.87899562 L0.190263158,15 Z" id="Fill-1" fill="#FFFFFF" mask="url(#mask-2)"></path>
            </g>
        </g>
    </g>
</svg>