<?xml version="1.0" encoding="UTF-8"?>
<svg width="172px" height="73px" viewBox="0 0 172 73" version="1.1" xmlns="http://www.w3.org/2000/svg" xmlns:xlink="http://www.w3.org/1999/xlink">
    <title>64D7E259-5921-4320-9E7E-8FC7880DBC3B</title>
    <defs>
        <polygon id="path-1" points="0 0 33.6524652 0 33.6524652 33.8576306 0 33.8576306"></polygon>
        <polygon id="path-3" points="0 73 172 73 172 0 0 0"></polygon>
    </defs>
    <g id="Page-1" stroke="none" stroke-width="1" fill="none" fill-rule="evenodd">
        <g id="Citrus-01" transform="translate(-110.000000, -30.000000)">
            <g id="Group-40" transform="translate(110.000000, 30.000000)">
                <path d="M36.948185,37.9384713 C26.5357613,37.9384713 18.0946539,29.4457847 18.0946539,18.9690688 C18.0946539,8.49302026 26.5357613,0.000333674626 36.948185,0.000333674626 L36.948185,37.9384713 Z" id="Fill-1" fill="#F6BD48"></path>
                <path d="M43.4963114,30.7331682 C36.9223828,24.1197371 36.9223828,13.3961019 43.4963114,6.78267086 C50.0695767,0.168572421 60.7280833,0.168572421 67.3013486,6.78267086 L43.4963114,30.7331682 Z" id="Fill-3" fill="#F6BD48"></path>
                <path d="M44.5210377,52.5914588 C44.5210377,63.8629877 35.4398494,72.9996663 24.2367767,72.9996663 C13.0337039,72.9996663 3.95251571,63.8629877 3.95251571,52.5914588 L44.5210377,52.5914588 Z" id="Fill-5" fill="#F6BD48"></path>
                <g id="Group-9" transform="translate(0.000000, 17.115239)">
                    <mask id="mask-2" fill="white">
                        <use xlink:href="#path-1"></use>
                    </mask>
                    <g id="Clip-8"></g>
                    <path d="M33.6524652,28.0486891 C25.9542495,35.7939445 13.4723417,35.7939445 5.77412605,28.0486891 C-1.9247529,20.3034336 -1.9247529,7.74525542 5.77412605,0 L33.6524652,28.0486891 Z" id="Fill-7" fill="#F6BD48" mask="url(#mask-2)"></path>
                </g>
                <path d="M60.9557929,46.9652375 C66.8757114,52.9213296 66.8757114,62.5778733 60.9557929,68.5326306 C55.0365376,74.4887227 45.4386416,74.4887227 39.5193864,68.5326306 L60.9557929,46.9652375 Z" id="Fill-10" fill="#F6BD48"></path>
                <path d="M78.6183093,24.2447316 C77.1763034,23.3031018 75.4424471,22.7718918 73.610423,22.7718918 C70.98576,22.7718918 68.7816267,23.6507908 67.0743023,25.4539684 C65.3663146,27.2144358 64.4901003,29.475415 64.4901003,32.2409103 C64.4901003,34.9656973 65.3258535,37.2266766 66.9874105,38.9884786 C68.6549371,40.7469439 70.777485,41.6265102 73.3623502,41.6265102 C76.7312316,41.6265102 79.9382687,39.6992056 81.3981836,36.977088 L83.4404726,38.2337066 C82.5635951,39.9514636 81.1905719,41.3328765 79.3558947,42.3806149 C77.527187,43.4283532 75.5253591,43.9301998 73.3623502,43.9301998 C70.0737277,43.9301998 67.3223751,42.8417532 65.1998272,40.6628579 C63.0766161,38.4425869 61.9921268,35.6363833 61.9921268,32.2409103 C61.9921268,28.8053964 63.0766161,25.9991928 65.239625,23.7789218 C67.4490646,21.5593182 70.235572,20.4675348 73.610423,20.4675348 C75.7435836,20.4675348 77.7566875,20.9960754 79.4580423,21.9503849 L78.6183093,24.2447316 Z" id="Fill-12" fill="#1A1919"></path>
                <mask id="mask-4" fill="white">
                    <use xlink:href="#path-3"></use>
                </mask>
                <g id="Clip-15"></g>
                <polygon id="Fill-14" fill="#1A1919" mask="url(#mask-4)" points="88.4943253 43.4284199 90.9922988 43.4284199 90.9922988 21.0134933 88.4943253 21.0134933"></polygon>
                <path d="M110.242149,42.0038295 C108.615084,43.3038258 106.659687,43.9304668 104.328864,43.9304668 C99.8695235,43.9304668 97.6255924,40.9994689 97.6255924,36.0951192 L97.6255924,23.2332971 L97.6255924,21.0136935 L97.6660535,21.0136935 L97.6660535,14.6605286 L100.123566,14.6605286 L100.123566,21.0136935 L109.28435,21.0136935 L109.28435,23.2332971 L100.123566,23.2332971 L100.123566,36.1792052 C100.123566,39.8235995 101.577511,41.6267772 104.536476,41.6267772 C106.244463,41.6267772 107.784637,41.1242632 109.198121,40.0765248 L110.242149,42.0038295 Z" id="Fill-16" fill="#1A1919" mask="url(#mask-4)"></path>
                <path d="M114.562595,43.4284199 L114.562595,21.0134933 L116.933879,21.0134933 L116.933879,24.6171792 C118.145058,21.8089736 120.268269,20.4268933 123.389078,20.4268933 C124.265956,20.4268933 125.183294,20.5523549 126.141094,20.8046129 L125.84659,23.1930559 C125.055941,22.9401305 124.265956,22.8153362 123.47597,22.8153362 C119.431853,22.8153362 117.060569,25.9992595 117.060569,30.6513512 L117.060569,43.4284199 L114.562595,43.4284199 Z" id="Fill-17" fill="#1A1919" mask="url(#mask-4)"></path>
                <path d="M132.161369,41.4576709 C130.540273,39.7399139 129.703857,37.4789346 129.703857,34.6733984 L129.703857,21.0134265 L132.20183,21.0134265 L132.20183,34.6300207 C132.20183,38.9444336 134.203658,41.6265102 138.241805,41.6265102 C142.406642,41.6265102 144.016462,38.9444336 144.016462,34.588645 L144.016462,21.0134265 L146.514436,21.0134265 L146.514436,34.6733984 C146.514436,40.3698916 143.907018,43.9742449 138.241805,43.9742449 C135.489789,43.9742449 133.828896,43.1353869 132.161369,41.4576709" id="Fill-18" fill="#1A1919" mask="url(#mask-4)"></path>
                <path d="M150.209924,39.0287198 L152.205782,37.7721011 C153.498547,40.3700918 155.453944,41.6700881 158.078607,41.6700881 C161.078032,41.6700881 163.160782,39.7394467 163.160782,37.4357571 C163.160782,35.9702582 162.202983,34.7543478 160.328507,33.7906955 C159.826392,33.5411069 158.955484,33.1640546 157.663383,32.6622079 C156.371282,32.1163162 155.499711,31.7392639 154.998259,31.4462976 C152.621006,30.2297199 151.455594,28.471922 151.455594,26.207606 C151.455594,22.8154697 154.120718,20.2588547 158.286218,20.2588547 C161.326105,20.2588547 163.576006,21.4313874 164.98949,23.7784547 L163.241704,25.2039127 C162.202983,23.4014023 160.536119,22.4784583 158.245757,22.4784583 C155.453944,22.4784583 153.872646,23.9880023 153.872646,26.1235199 C153.872646,27.5916883 154.663295,28.7215106 156.29036,29.5189929 L158.788334,30.6074396 C160.080435,31.1526639 161.078032,31.5704245 161.741992,31.9074359 C164.285733,33.1200095 165.658756,34.7136395 165.658756,37.2702545 C165.658756,39.1535141 164.949029,40.7064358 163.535545,42.0037628 C162.116754,43.3037591 160.288046,43.9304 158.078607,43.9304 C154.789984,43.9304 151.83102,42.3401068 150.209924,39.0287198" id="Fill-19" fill="#1A1919" mask="url(#mask-4)"></path>
                <polygon id="Fill-20" fill="#1A1919" mask="url(#mask-4)" points="84.2353005 23.2330969 91.0029116 23.2330969 91.0029116 21.0134933 84.2353005 21.0134933"></polygon>
                <polygon id="Fill-21" fill="#1A1919" mask="url(#mask-4)" points="88.4943253 17.4932259 90.9922988 17.4932259 90.9922988 14.8004717 88.4943253 14.8004717"></polygon>
                <path d="M169.648615,22.4205992 C169.743466,22.4205992 169.832348,22.4172624 169.916587,22.4105889 C170.000825,22.4052501 170.075114,22.3872317 170.141444,22.3578683 C170.206447,22.3291723 170.258847,22.2851273 170.297982,22.2250658 C170.337116,22.1656717 170.357015,22.0815857 170.357015,21.9741425 C170.357015,21.883383 170.33977,21.8113093 170.303952,21.7579213 C170.26946,21.7045334 170.224356,21.6624904 170.169302,21.6337944 C170.113586,21.604431 170.049246,21.5850779 169.978273,21.5744003 C169.905974,21.5650574 169.835001,21.5597186 169.765355,21.5597186 L169.211503,21.5597186 L169.211503,22.4205992 L169.648615,22.4205992 Z M169.833011,21.2187031 C170.153383,21.2187031 170.39018,21.2827687 170.544065,21.4102324 C170.698613,21.5390308 170.774892,21.7332294 170.774892,21.9928283 C170.774892,22.2370781 170.707236,22.4152604 170.572587,22.5287097 C170.436611,22.6421591 170.268134,22.7095614 170.067155,22.7302492 L170.836578,23.9254717 L170.387527,23.9254717 L169.655248,22.7609473 L169.211503,22.7609473 L169.211503,23.9254717 L168.792963,23.9254717 L168.792963,21.2187031 L169.833011,21.2187031 Z M167.933994,23.3522187 C168.030836,23.5937991 168.164158,23.8033468 168.334625,23.9808617 C168.504429,24.1583766 168.705408,24.2978526 168.937561,24.3992897 C169.169715,24.5000594 169.421104,24.550778 169.691729,24.550778 C169.958374,24.550778 170.206447,24.5000594 170.436611,24.3992897 C170.666775,24.2978526 170.866427,24.1583766 171.036894,23.9808617 C171.207361,23.8033468 171.340684,23.5937991 171.436862,23.3522187 C171.533703,23.1106383 171.582123,22.8477027 171.582123,22.5627445 C171.582123,22.286462 171.533703,22.0281978 171.436862,21.7886194 C171.340684,21.549041 171.207361,21.3414954 171.036894,21.1659826 C170.866427,20.9904697 170.666775,20.8516611 170.436611,20.7508913 C170.206447,20.6501216 169.958374,20.599403 169.691729,20.599403 C169.421104,20.599403 169.169715,20.6501216 168.937561,20.7508913 C168.705408,20.8516611 168.504429,20.9904697 168.334625,21.1659826 C168.164158,21.3414954 168.030836,21.549041 167.933994,21.7886194 C167.837816,22.0281978 167.789396,22.286462 167.789396,22.5627445 C167.789396,22.8477027 167.837816,23.1106383 167.933994,23.3522187 L167.933994,23.3522187 Z M167.555915,21.6524802 C167.678625,21.3715261 167.845776,21.1279437 168.057367,20.9217327 C168.268959,20.7148545 168.515042,20.5526886 168.796279,20.4352351 C169.077517,20.3177817 169.376,20.2590549 169.691729,20.2590549 C170.008122,20.2590549 170.305278,20.3177817 170.584526,20.4352351 C170.86311,20.5526886 171.107867,20.7148545 171.317468,20.9217327 C171.526407,21.1279437 171.692231,21.3715261 171.815604,21.6524802 C171.938977,21.9334342 172,22.2370781 172,22.5627445 C172,22.8970865 171.938977,23.2060692 171.815604,23.4890253 C171.692231,23.771314 171.526407,24.0175659 171.317468,24.2257789 C171.107867,24.4346592 170.86311,24.5968251 170.584526,24.7122765 C170.305278,24.8270606 170.008122,24.8851199 169.691729,24.8851199 C169.376,24.8851199 169.077517,24.8270606 168.796279,24.7122765 C168.515042,24.5968251 168.268959,24.4346592 168.057367,24.2257789 C167.845776,24.0175659 167.678625,23.771314 167.555915,23.4890253 C167.432542,23.2060692 167.370856,22.8970865 167.370856,22.5627445 C167.370856,22.2370781 167.432542,21.9334342 167.555915,21.6524802 L167.555915,21.6524802 Z" id="Fill-22" fill="#1A1919" mask="url(#mask-4)"></path>
                <polygon id="Fill-23" fill="#1A1919" mask="url(#mask-4)" points="84.6058177 60.9319898 84.6058177 55.2408354 85.0442565 55.2408354 87.9554635 59.0000137 90.8494248 55.2408354 91.2958232 55.2408354 91.2958232 60.9319898 90.3837909 60.9319898 90.3837909 57.3296385 88.0649074 60.3220326 87.8274474 60.3220326 85.5092271 57.3296385 85.5092271 60.9319898"></polygon>
                <path d="M96.0528508,57.2120516 C95.7424282,56.8723708 95.3404707,56.6975253 94.8383555,56.6975253 C94.3369036,56.6975253 93.9356094,56.8723708 93.6338096,57.2120516 C93.3326731,57.5517324 93.1774618,57.9754991 93.1774618,58.4706723 C93.1774618,58.9665128 93.3326731,59.3889449 93.6338096,59.7286256 C93.9356094,60.0683064 94.3369036,60.2438192 94.8383555,60.2438192 C95.3404707,60.2438192 95.7424282,60.0683064 96.0528508,59.7286256 C96.3632734,59.3889449 96.5184848,58.9665128 96.5184848,58.4613294 C96.5184848,57.9754991 96.3632734,57.5517324 96.0528508,57.2120516 L96.0528508,57.2120516 Z M96.4634312,56.0094882 L97.3031642,56.0094882 L97.3031642,60.9318563 L96.4634312,60.9318563 L96.4634312,60.2331417 C96.0256557,60.7756966 95.4499146,61.0513118 94.7381978,61.0513118 C94.0351038,61.0513118 93.4514031,60.8037253 92.9857692,60.2985419 C92.5201353,59.7933585 92.2919614,59.1773951 92.2919614,58.4346354 C92.2919614,57.6985492 92.5201353,57.0932634 92.9857692,56.614774 C93.4514031,56.1289438 94.0351038,55.8907001 94.7381978,55.8907001 C95.4320056,55.8907001 96.0070834,56.1649806 96.4634312,56.725554 L96.4634312,56.0094882 Z" id="Fill-24" fill="#1A1919" mask="url(#mask-4)"></path>
                <polyline id="Fill-25" fill="#1A1919" mask="url(#mask-4)" points="99.3579894 58.3238555 99.3579894 60.9318563 98.4817752 60.9318563 98.4817752 56.0094882 99.359316 56.0094882 99.359316 56.7348969"></polyline>
                <path d="M105.27227,57.2218616 C104.943275,56.872838 104.541981,56.6979925 104.076347,56.6979925 C103.610713,56.6979925 103.209419,56.872838 102.880424,57.2218616 C102.551429,57.5622097 102.387595,57.9752989 102.387595,58.4611292 C102.387595,58.9482941 102.551429,59.3707262 102.880424,59.7197499 C103.209419,60.0687735 103.610713,60.243619 104.076347,60.243619 C104.541981,60.243619 104.943275,60.0687735 105.27227,59.7197499 C105.600602,59.3707262 105.765099,58.9482941 105.765099,58.4611292 C105.765099,57.9752989 105.600602,57.5622097 105.27227,57.2218616 M102.223761,60.3070172 C101.739554,59.8018338 101.502094,59.1865378 101.502094,58.4611292 C101.502094,57.7363879 101.739554,57.1291001 102.223761,56.6339269 C102.707304,56.1287436 103.327486,55.881157 104.076347,55.881157 C104.815922,55.881157 105.427481,56.1287436 105.911024,56.6339269 C106.394567,57.1391103 106.641313,57.7450634 106.641313,58.4611292 C106.641313,59.1865378 106.394567,59.8018338 105.911024,60.3070172 C105.427481,60.8035251 104.815922,61.0511116 104.076347,61.0511116 C103.327486,61.0511116 102.707304,60.8035251 102.223761,60.3070172" id="Fill-26" fill="#1A1919" mask="url(#mask-4)"></path>
                <path d="M107.445759,58.9482274 L107.445759,56.0098887 L108.321973,56.0098887 L108.321973,58.9208661 C108.321973,59.7283587 108.778321,60.2335421 109.545755,60.2335421 C110.321148,60.2335421 110.777496,59.7283587 110.777496,58.9208661 L110.777496,56.0098887 L111.645087,56.0098887 L111.645087,58.9482274 C111.645087,60.2615707 110.850458,61.0510449 109.545755,61.0510449 C108.267583,61.0510449 107.445759,60.2335421 107.445759,58.9482274" id="Fill-27" fill="#1A1919" mask="url(#mask-4)"></path>
                <path d="M112.759292,60.9319898 L112.759292,56.0096217 L113.641476,56.0096217 L113.641476,56.7070017 C113.92802,56.1564385 114.448044,55.8814907 115.169711,55.8814907 C115.71693,55.8814907 116.173278,56.0550015 116.547377,56.413368 C116.922139,56.7717346 117.104546,57.2762506 117.104546,57.9469366 L117.104546,60.9319898 L116.237617,60.9319898 L116.237617,58.1951905 C116.237617,57.2402137 115.726216,56.6976588 114.986641,56.6976588 C114.593969,56.6976588 114.265638,56.8351327 114.010269,57.1200909 C113.763523,57.4057163 113.635506,57.7640829 113.635506,58.2045334 L113.635506,60.9319898 L112.759292,60.9319898 Z" id="Fill-28" fill="#1A1919" mask="url(#mask-4)"></path>
                <path d="M125.664383,60.9736991 L125.664383,54.2948678 L126.540597,54.2948678 L126.540597,56.6572842 C126.814539,56.2168337 127.398902,55.9232 128.064852,55.9232 C128.603448,55.9232 129.060459,56.0967108 129.434559,56.4550773 C129.808658,56.8141112 129.991064,57.3186273 129.991064,57.9886459 L129.991064,60.9736991 L129.124136,60.9736991 L129.124136,58.2368998 C129.124136,57.2725802 128.622021,56.7393681 127.883109,56.7393681 C127.08848,56.7393681 126.540597,57.3553315 126.540597,58.2368998 L126.540597,60.9736991 L125.664383,60.9736991 Z" id="Fill-29" fill="#1A1919" mask="url(#mask-4)"></path>
                <path d="M134.863439,58.1088355 C134.818335,57.2539611 134.206112,56.7127409 133.402861,56.7127409 C132.599609,56.7127409 131.98805,57.2906653 131.842125,58.1088355 L134.863439,58.1088355 Z M135.739653,58.8709484 L131.842125,58.8709484 C131.98805,59.707137 132.535933,60.2750512 133.558072,60.2750512 C134.142436,60.2750512 134.818335,60.0554933 135.264733,59.7244881 L135.639495,60.3951741 C135.155289,60.771559 134.352038,61.0845458 133.5395,61.0845458 C131.6962,61.0845458 130.928766,59.7698678 130.928766,58.493896 C130.928766,57.7498016 131.157603,57.1445159 131.613951,56.6573509 C132.078921,56.1715206 132.672572,55.9319423 133.402861,55.9319423 C134.096668,55.9319423 134.66246,56.1521675 135.100236,56.6019609 C135.547961,57.0524217 135.766848,57.6583748 135.766848,58.4204876 C135.766848,58.4852205 135.758225,58.63137 135.739653,58.8709484 L135.739653,58.8709484 Z" id="Fill-30" fill="#1A1919" mask="url(#mask-4)"></path>
                <path d="M140.434066,57.2537609 C140.132929,56.9140802 139.731635,56.7392347 139.228856,56.7392347 C138.726741,56.7392347 138.325447,56.9140802 138.015024,57.2537609 C137.713888,57.5934417 137.558677,58.0172085 137.558677,58.5030387 C137.558677,59.0082221 137.713888,59.4306542 138.015024,59.770335 C138.325447,60.1100157 138.726741,60.2855286 139.228856,60.2855286 C139.731635,60.2855286 140.132929,60.1100157 140.434066,59.770335 C140.744488,59.4306542 140.8997,59.0082221 140.8997,58.5030387 C140.8997,58.0172085 140.744488,57.5934417 140.434066,57.2537609 L140.434066,57.2537609 Z M140.83536,54.2947343 L141.711574,54.2947343 L141.711574,60.9735657 L140.83536,60.9735657 L140.83536,60.2855286 C140.406871,60.8267488 139.841079,61.0930212 139.137985,61.0930212 C138.426268,61.0930212 137.832618,60.8454346 137.366984,60.3495941 C136.90135,59.8444107 136.67384,59.2284474 136.67384,58.5030387 C136.67384,57.786973 136.90135,57.1816872 137.366984,56.684512 C137.832618,56.179996 138.416319,55.9324094 139.120076,55.9324094 C139.822507,55.9324094 140.388298,56.2073573 140.83536,56.7672633 L140.83536,54.2947343 Z" id="Fill-31" fill="#1A1919" mask="url(#mask-4)"></path>
                <path d="M144.046045,60.9736991 L144.922259,60.9736991 L144.922259,56.051331 L144.046045,56.051331 L144.046045,60.9736991 Z M143.863639,54.7193019 C143.863639,54.3622701 144.138243,54.1040059 144.502393,54.1040059 C144.840674,54.1040059 145.123238,54.3796212 145.123238,54.7193019 C145.123238,55.0870114 144.840674,55.3532837 144.502393,55.3532837 C144.138243,55.3532837 143.863639,55.0870114 143.863639,54.7193019 L143.863639,54.7193019 Z" id="Fill-32" fill="#1A1919" mask="url(#mask-4)"></path>
                <path d="M150.091725,57.2537609 C149.790588,56.9140802 149.389294,56.7392347 148.886515,56.7392347 C148.3844,56.7392347 147.983106,56.9140802 147.672683,57.2537609 C147.371547,57.5934417 147.216336,58.0172085 147.216336,58.5030387 C147.216336,59.0082221 147.371547,59.4306542 147.672683,59.770335 C147.983106,60.1100157 148.3844,60.2855286 148.886515,60.2855286 C149.389294,60.2855286 149.790588,60.1100157 150.091725,59.770335 C150.402147,59.4306542 150.557359,59.0082221 150.557359,58.5030387 C150.557359,58.0172085 150.402147,57.5934417 150.091725,57.2537609 L150.091725,57.2537609 Z M150.493019,54.2947343 L151.369233,54.2947343 L151.369233,60.9735657 L150.493019,60.9735657 L150.493019,60.2855286 C150.064529,60.8267488 149.498075,61.0930212 148.795644,61.0930212 C148.083927,61.0930212 147.490277,60.8454346 147.024643,60.3495941 C146.559009,59.8444107 146.330835,59.2284474 146.330835,58.5030387 C146.330835,57.786973 146.559009,57.1816872 147.024643,56.684512 C147.490277,56.179996 148.073978,55.9324094 148.777072,55.9324094 C149.480166,55.9324094 150.045957,56.2073573 150.493019,56.7672633 L150.493019,54.2947343 Z" id="Fill-33" fill="#1A1919" mask="url(#mask-4)"></path>
                <path d="M99.7644574,56.602695 C99.7644574,56.2042875 100.085493,55.8812905 100.482144,55.8812905 C100.878132,55.8812905 101.199167,56.2042875 101.199167,56.602695 C101.199167,57.0017698 100.878132,57.3247669 100.482144,57.3247669 C100.085493,57.3247669 99.7644574,57.0017698 99.7644574,56.602695" id="Fill-34" fill="#1A1919" mask="url(#mask-4)"></path>
                <polygon id="Fill-35" fill="#1A1919" mask="url(#mask-4)" points="142.877317 60.9736991 146.135428 60.9736991 146.135428 60.2903335 142.877317 60.2903335"></polygon>
                <polygon id="Fill-36" fill="#1A1919" mask="url(#mask-4)" points="142.877317 56.733362 144.922259 56.733362 144.922259 56.0499963 142.877317 56.0499963"></polygon>
                <path d="M121.818061,61.0681958 C120.090174,61.0681958 118.683323,59.7174809 118.683323,58.057116 C118.683323,56.396751 120.090174,55.0467035 121.818061,55.0467035 C123.076334,55.0467035 124.20858,55.7647713 124.702073,56.8772425 L123.884892,57.2442846 C123.535335,56.4561451 122.724124,55.9462903 121.818061,55.9462903 C120.583003,55.9462903 119.578773,56.8932589 119.578773,58.057116 C119.578773,59.2209731 120.583003,60.1679416 121.818061,60.1679416 C122.714174,60.1679416 123.522069,59.6654277 123.876269,58.8893005 L124.690133,59.2650181 C124.190008,60.3601382 123.062405,61.0681958 121.818061,61.0681958" id="Fill-37" fill="#1A1919" mask="url(#mask-4)"></path>
                <path d="M77.9550131,59.7556533 C78.3410515,59.7556533 78.552643,59.5094014 78.552643,59.2251106 C78.552643,58.935481 78.3463578,58.6892292 77.9550131,58.6892292 L77.074819,58.6892292 L77.074819,59.7556533 L77.9550131,59.7556533 Z M77.074819,57.1309687 L77.074819,58.0118697 L77.8628149,58.0118697 C78.1937997,58.0118697 78.373553,57.7983179 78.373553,57.5574048 C78.373553,57.3224979 78.1937997,57.1309687 77.8953164,57.1309687 L77.074819,57.1309687 Z M79.3837531,59.2911782 C79.3837531,59.6241855 79.2696662,59.9031375 79.0361859,60.1266995 C78.808012,60.3515962 78.4982527,60.4657129 78.1122143,60.4657129 L76.2815168,60.4657129 L76.2815168,56.4262479 L78.0306289,56.4262479 C78.3894721,56.4262479 78.6667299,56.5243482 78.8677087,56.726555 C79.0686874,56.9287618 79.1721616,57.1636688 79.1721616,57.4319432 C79.1721616,57.786973 78.9499574,58.136664 78.6229524,58.2514481 C79.1177713,58.3775771 79.3837531,58.7933356 79.3837531,59.2911782 L79.3837531,59.2911782 Z" id="Fill-38" fill="#1A1919" mask="url(#mask-4)"></path>
                <polygon id="Fill-39" fill="#1A1919" mask="url(#mask-4)" points="82.921974 56.4261144 81.5310419 59.066148 81.5310419 60.4662468 80.7264636 60.4662468 80.7264636 59.066148 79.3521139 56.4261144 80.2813918 56.4261144 81.1284211 58.1972593 81.992696 56.4261144"></polygon>
            </g>
        </g>
    </g>
</svg>