<?xml version="1.0" encoding="UTF-8"?>
<svg width="17px" height="14px" viewBox="0 0 17 14" version="1.1" xmlns="http://www.w3.org/2000/svg" xmlns:xlink="http://www.w3.org/1999/xlink">
    <title>1EBDAE8E-4B87-4F7E-992D-8EA890D71DD8</title>
    <g id="Page-1" stroke="none" stroke-width="1" fill="none" fill-rule="evenodd">
        <g id="Citrus-01" transform="translate(-1273.000000, -4812.000000)" fill="#FFFFFF">
            <path d="M1290,4813.65724 C1289.37505,4813.93875 1288.70247,4814.12864 1287.99677,4814.21362 C1288.71731,4813.77649 1289.2698,4813.08408 1289.53034,4812.25808 C1288.85673,4812.66339 1288.11031,4812.95749 1287.31557,4813.11625 C1286.67958,4812.42943 1285.77303,4812 1284.76987,4812 C1282.84394,4812 1281.28242,4813.5824 1281.28242,4815.53445 C1281.28242,4815.81106 1281.31314,4816.08068 1281.37284,4816.33981 C1278.47411,4816.19224 1275.9039,4814.78538 1274.18365,4812.64695 C1273.88342,4813.16871 1273.71157,4813.77579 1273.71157,4814.42414 C1273.71157,4815.6502 1274.3272,4816.73218 1275.26308,4817.36584 C1274.69161,4817.3473 1274.15362,4817.18819 1273.68327,4816.92347 C1273.68293,4816.93815 1273.68293,4816.95319 1273.68293,4816.96823 C1273.68293,4818.68037 1274.88521,4820.10856 1276.48089,4820.43378 C1276.18825,4820.51421 1275.88009,4820.55758 1275.56192,4820.55758 C1275.33693,4820.55758 1275.11849,4820.5352 1274.90557,4820.49393 C1275.34969,4821.89799 1276.63756,4822.92017 1278.16353,4822.94849 C1276.96988,4823.89654 1275.46633,4824.46166 1273.832,4824.46166 C1273.55076,4824.46166 1273.27296,4824.44487 1273,4824.412 C1274.54392,4825.4153 1276.37702,4826 1278.34643,4826 C1284.76193,4826 1288.26974,4820.61458 1288.26974,4815.94395 C1288.26974,4815.79078 1288.26698,4815.63796 1288.26007,4815.48619 C1288.94127,4814.98891 1289.53275,4814.36609 1290,4813.65724" id="Fill-1"></path>
        </g>
    </g>
</svg>