<?xml version="1.0" encoding="UTF-8"?>
<svg width="17px" height="14px" viewBox="0 0 17 14" version="1.1" xmlns="http://www.w3.org/2000/svg" xmlns:xlink="http://www.w3.org/1999/xlink">
    <title>4DABDED8-D4B5-40F2-907C-CFF7772B8185</title>
    <g id="Page-1" stroke="none" stroke-width="1" fill="none" fill-rule="evenodd">
        <g id="Citrus-01" transform="translate(-1340.000000, -60.000000)" fill="#000000">
            <path d="M1357,61.6572413 C1356.37505,61.9387521 1355.70247,62.1286407 1354.99677,62.2136184 C1355.71731,61.77649 1356.2698,61.0840785 1356.53034,60.2580806 C1355.85673,60.6633861 1355.11031,60.9574861 1354.31557,61.1162512 C1353.67958,60.429435 1352.77303,60 1351.76987,60 C1349.84394,60 1348.28242,61.582405 1348.28242,63.5344457 C1348.28242,63.8110606 1348.31314,64.0806814 1348.37284,64.3398112 C1345.47411,64.1922366 1342.9039,62.7853824 1341.18365,60.6469501 C1340.88342,61.1687066 1340.71157,61.7757906 1340.71157,62.4241395 C1340.71157,63.6501973 1341.3272,64.7321776 1342.26308,65.365839 C1341.69161,65.3473048 1341.15362,65.18819 1340.68327,64.9234651 C1340.68293,64.9381526 1340.68293,64.9531898 1340.68293,64.968227 C1340.68293,66.6803717 1341.88521,68.1085577 1343.48089,68.4337813 C1343.18825,68.5142129 1342.88009,68.5575761 1342.56192,68.5575761 C1342.33693,68.5575761 1342.11849,68.5351951 1341.90557,68.4939302 C1342.34969,69.8979867 1343.63756,70.9201679 1345.16353,70.9484938 C1343.96988,71.8965379 1342.46633,72.4616576 1340.832,72.4616576 C1340.55076,72.4616576 1340.27296,72.4448719 1340,72.4119998 C1341.54392,73.415297 1343.37702,74 1345.34643,74 C1351.76193,74 1355.26974,68.6145776 1355.26974,63.9439476 C1355.26974,63.7907778 1355.26698,63.6379577 1355.26007,63.4861867 C1355.94127,62.9889094 1356.53275,62.3660888 1357,61.6572413" id="Fill-1"></path>
        </g>
    </g>
</svg>