<?xml version="1.0" encoding="UTF-8"?>
<svg width="24px" height="18px" viewBox="0 0 24 18" version="1.1" xmlns="http://www.w3.org/2000/svg" xmlns:xlink="http://www.w3.org/1999/xlink">
    <title>A03550D8-E3D5-4365-A708-65C56AE8009A</title>
    <defs>
        <polygon id="path-1" points="0 0 24 0 24 18 0 18"></polygon>
    </defs>
    <g id="Page-1" stroke="none" stroke-width="1" fill="none" fill-rule="evenodd">
        <g id="Citrus-01" transform="translate(-1466.000000, -58.000000)">
            <g id="Group-6" transform="translate(1466.000000, 58.000000)">
                <g id="Group-3">
                    <mask id="mask-2" fill="white">
                        <use xlink:href="#path-1"></use>
                    </mask>
                    <g id="Clip-2"></g>
                    <path d="M23.0204082,13.1127955 C23.0204082,15.256053 21.3188571,17.000059 19.2273061,17.000059 L4.77257143,17.000059 C2.68114286,17.000059 0.979591837,15.256053 0.979591837,13.1127955 L0.979591837,4.88714197 C0.979591837,2.74388453 2.68114286,1.00000347 4.77257143,1.00000347 L19.2273061,1.00000347 C21.3188571,1.00000347 23.0204082,2.74388453 23.0204082,4.88714197 L23.0204082,13.1127955 Z M19.2273061,0 L4.77257143,0 C2.14089796,0 0,2.19238261 0,4.88714197 L0,13.1127955 C0,15.8076799 2.14089796,18.0000625 4.77257143,18.0000625 L19.2273061,18.0000625 C21.859102,18.0000625 24,15.8076799 24,13.1127955 L24,4.88714197 C24,2.19238261 21.859102,0 19.2273061,0 L19.2273061,0 Z" id="Fill-1" fill="#000000" mask="url(#mask-2)"></path>
                </g>
                <path d="M9.79591837,12.4348057 L9.79591837,6.06515856 L15.1229388,9.25041962 L9.79591837,12.4348057 Z M16.3397143,8.81904312 L9.55359184,4.76140403 C9.40297959,4.67140372 9.21502041,4.66990371 9.06269388,4.75902902 C8.91036735,4.84815433 8.81632653,5.01365491 8.81632653,5.19278053 L8.81632653,13.3071837 C8.81632653,13.4863093 8.91036735,13.6518099 9.06232653,13.7409352 C9.13787755,13.7851854 9.22212245,13.8071854 9.30612245,13.8071854 C9.39171429,13.8071854 9.47706122,13.7841854 9.55359184,13.7385602 L16.3397143,9.68192112 C16.4897143,9.59229581 16.5820408,9.42792024 16.5820408,9.25041962 C16.5820408,9.072919 16.4899592,8.90866843 16.3397143,8.81904312 L16.3397143,8.81904312 Z" id="Fill-4" fill="#000000"></path>
            </g>
        </g>
    </g>
</svg>